<?xml version="1.0" standalone="no"?>
<!DOCTYPE svg PUBLIC "-//W3C//DTD SVG 20010904//EN"
 "http://www.w3.org/TR/2001/REC-SVG-20010904/DTD/svg10.dtd">
<svg version="1.0" xmlns="http://www.w3.org/2000/svg"
 width="700.000000pt" height="700.000000pt" viewBox="0 0 700.000000 700.000000"
 preserveAspectRatio="xMidYMid meet">
<metadata>
Created by potrace 1.11, written by Peter Selinger 2001-2013
</metadata>
<g transform="translate(0.000000,700.000000) scale(0.100000,-0.100000)"
fill="#000000" stroke="none">
<path d="M3279 6996 c-2 -2 -48 -7 -102 -10 -53 -4 -103 -8 -110 -11 -6 -2
-37 -6 -67 -10 -146 -16 -458 -91 -640 -154 -573 -199 -1102 -554 -1485 -996
-33 -38 -68 -79 -78 -90 -38 -42 -157 -204 -224 -305 -250 -377 -431 -825
-512 -1265 -46 -250 -56 -361 -56 -645 0 -249 6 -351 30 -515 226 -1532 1429
-2735 2960 -2960 159 -23 273 -30 510 -30 227 0 341 7 505 31 1515 221 2716
1415 2950 2932 29 185 35 281 35 527 0 328 -21 525 -85 802 -222 950 -836
1767 -1696 2257 -361 205 -847 367 -1249 416 -49 6 -103 13 -120 16 -37 7
-560 16 -566 10z"/>
</g>
</svg>
